<?xml version="1.0" encoding="UTF-8" standalone="no"?>
<!-- Created with Inkscape (http://www.inkscape.org/) -->

<svg
   xmlns:dc="http://purl.org/dc/elements/1.1/"
   xmlns:cc="http://creativecommons.org/ns#"
   xmlns:rdf="http://www.w3.org/1999/02/22-rdf-syntax-ns#"
   xmlns:svg="http://www.w3.org/2000/svg"
   xmlns="http://www.w3.org/2000/svg"
   xmlns:sodipodi="http://sodipodi.sourceforge.net/DTD/sodipodi-0.dtd"
   xmlns:inkscape="http://www.inkscape.org/namespaces/inkscape"
   width="210mm"
   height="297mm"
   viewBox="0 0 210 297"
   version="1.1"
   id="svg3945"
   sodipodi:docname="downarrow.svg"
   inkscape:version="0.92.4 5da689c313, 2019-01-14">
  <defs
     id="defs3939">
    <inkscape:perspective
       sodipodi:type="inkscape:persp3d"
       inkscape:vp_x="0 : 148.5 : 1"
       inkscape:vp_y="0 : 1000 : 0"
       inkscape:vp_z="210 : 148.5 : 1"
       inkscape:persp3d-origin="105 : 99 : 1"
       id="perspective4010" />
  </defs>
  <sodipodi:namedview
     id="base"
     pagecolor="#ffffff"
     bordercolor="#666666"
     borderopacity="1.0"
     inkscape:pageopacity="0.0"
     inkscape:pageshadow="2"
     inkscape:zoom="0.35"
     inkscape:cx="400"
     inkscape:cy="560"
     inkscape:document-units="mm"
     inkscape:current-layer="layer1"
     showgrid="false"
     inkscape:window-width="1366"
     inkscape:window-height="717"
     inkscape:window-x="0"
     inkscape:window-y="27"
     inkscape:window-maximized="1" />
  <metadata
     id="metadata3942">
    <rdf:RDF>
      <cc:Work
         rdf:about="">
        <dc:format>image/svg+xml</dc:format>
        <dc:type
           rdf:resource="http://purl.org/dc/dcmitype/StillImage" />
      </cc:Work>
    </rdf:RDF>
  </metadata>
  <g
     inkscape:label="Layer 1"
     inkscape:groupmode="layer"
     id="layer1">
    <path
       style="fill:#ff0000;stroke-width:0.75595242"
       d="M 94.94028,290.8846 C 74.40285,277.88977 69.97387,274.47323 57.51358,262.01337 38.40327,242.90373 32.52703,234.80684 21.99468,213.07174 14.50815,197.62217 10.19399,184.6649 9.7044195,176.15888 l -0.37213,-6.46552 3.6871305,-3.25315 c 5.34574,-4.71656 11.65024,-7.59619 28.25558,-12.90597 23.58042,-7.54017 29.16766,-10.66736 35.15791,-19.67797 4.03178,-6.06467 8.91078,-17.32167 10.93083,-25.21997 1.97511,-7.72262 2.58634,-24.848919 1.56821,-43.940467 C 88.46632,55.964584 87.89134,41.847174 87.65421,33.32381 l -0.43113,-15.497024 3.2953,-3.166671 c 4.40847,-4.236378 11.28211,-8.2678447 17.28043,-10.1351767 6.95964,-2.1665977 32.82229,-3.71471373 34.47346,-2.063551 2.8564,2.8563977 3.22372,21.1373117 0.69093,34.3864447 -0.6487,3.393422 -4.088,16.660386 -7.64287,29.482142 -10.46032,37.728356 -11.66671,44.343076 -11.62786,63.755746 0.0211,10.53093 0.71316,13.83861 3.51154,16.78283 4.62029,4.86111 4.05034,4.7817 32.75862,4.56418 l 26.08346,-0.19764 3.99191,3.49203 c 2.19555,1.92061 4.66044,4.80247 5.47754,6.40412 2.10889,4.13375 1.96021,10.74146 -0.39987,17.77203 -6.80106,20.26001 -38.67086,70.76284 -57.19439,90.63374 -11.10308,11.91069 -29.48794,26.86304 -33.02063,26.85555 -0.69277,-0.003 -5.17494,-2.48005 -9.96037,-5.50796 z"
       id="path4074"
       inkscape:connector-curvature="0" />
  </g>
</svg>
